<svg width="24" height="24" viewBox="0 0 24 24" fill="none" xmlns="http://www.w3.org/2000/svg">
<path fill-rule="evenodd" clip-rule="evenodd" d="M12 3.75C7.44365 3.75 3.75 7.44365 3.75 12C3.75 16.5563 7.44365 20.25 12 20.25C16.5563 20.25 20.25 16.5563 20.25 12C20.25 7.44365 16.5563 3.75 12 3.75ZM2.25 12C2.25 6.61522 6.61522 2.25 12 2.25C17.3848 2.25 21.75 6.61522 21.75 12C21.75 17.3848 17.3848 21.75 12 21.75C6.61522 21.75 2.25 17.3848 2.25 12Z" fill="current"/>
<path fill-rule="evenodd" clip-rule="evenodd" d="M2.7627 9C2.7627 8.58579 3.09848 8.25 3.5127 8.25H20.4875C20.9017 8.25 21.2375 8.58579 21.2375 9C21.2375 9.41421 20.9017 9.75 20.4875 9.75H3.5127C3.09848 9.75 2.7627 9.41421 2.7627 9Z" fill="current"/>
<path fill-rule="evenodd" clip-rule="evenodd" d="M2.7627 15C2.7627 14.5858 3.09848 14.25 3.5127 14.25H20.4874C20.9017 14.25 21.2374 14.5858 21.2374 15C21.2374 15.4142 20.9017 15.75 20.4874 15.75H3.5127C3.09848 15.75 2.7627 15.4142 2.7627 15Z" fill="current"/>
<path fill-rule="evenodd" clip-rule="evenodd" d="M10.0378 6.10218C9.4079 7.57337 9 9.65809 9 12.0001C9 14.3421 9.4079 16.4268 10.0378 17.898C10.3533 18.635 10.7098 19.1834 11.0674 19.5367C11.4218 19.8868 11.7361 20.0085 12 20.0085C12.2639 20.0085 12.5782 19.8868 12.9326 19.5367C13.2902 19.1834 13.6467 18.635 13.9622 17.898C14.5921 16.4268 15 14.3421 15 12.0001C15 9.65809 14.5921 7.57337 13.9622 6.10218C13.6467 5.36523 13.2902 4.81681 12.9326 4.46354C12.5782 4.11343 12.2639 3.9917 12 3.9917C11.7361 3.9917 11.4218 4.11343 11.0674 4.46354C10.7098 4.81681 10.3533 5.36523 10.0378 6.10218ZM10.0132 3.39642C10.5561 2.86013 11.2284 2.4917 12 2.4917C12.7716 2.4917 13.4439 2.86013 13.9868 3.39642C14.5264 3.92955 14.978 4.66376 15.3411 5.51178C16.0684 7.21049 16.5 9.50498 16.5 12.0001C16.5 14.4952 16.0684 16.7897 15.3411 18.4884C14.978 19.3364 14.5264 20.0707 13.9868 20.6038C13.4439 21.1401 12.7716 21.5085 12 21.5085C11.2284 21.5085 10.5561 21.1401 10.0132 20.6038C9.47357 20.0707 9.02197 19.3364 8.65889 18.4884C7.93156 16.7897 7.5 14.4952 7.5 12.0001C7.5 9.50498 7.93156 7.21049 8.65889 5.51178C9.02197 4.66376 9.47357 3.92955 10.0132 3.39642Z" fill="current"/>
</svg>
