<svg width="32" height="32" viewBox="0 0 32 32" fill="none" xmlns="http://www.w3.org/2000/svg">
<path fill-rule="evenodd" clip-rule="evenodd" d="M16.0001 27.3332C22.2593 27.3332 27.3334 22.2591 27.3334 15.9998C27.3334 9.74061 22.2593 4.6665 16.0001 4.6665C9.74085 4.6665 4.66675 9.74061 4.66675 15.9998C4.66675 22.2591 9.74085 27.3332 16.0001 27.3332ZM29.3334 15.9998C29.3334 23.3636 23.3639 29.3332 16.0001 29.3332C8.63628 29.3332 2.66675 23.3636 2.66675 15.9998C2.66675 8.63604 8.63628 2.6665 16.0001 2.6665C23.3639 2.6665 29.3334 8.63604 29.3334 15.9998Z" fill="#A4A9B1"/>
<path d="M12.1723 14.6298L20 9.07178L19.1005 18.6298L12 22.9282L12.1723 14.6298Z" fill="#A4A9B1"/>
</svg>
