<svg width="24" height="24" viewBox="0 0 24 24" fill="none" xmlns="http://www.w3.org/2000/svg">
<path fill-rule="evenodd" clip-rule="evenodd" d="M21 4.5H2V3H21V4.5ZM8 10.0833H2V8.58333H8V10.0833ZM7.80556 15.4167H2V13.9167H7.80556V15.4167ZM8.86111 21H2V19.5H8.86111V21Z" fill="current"/>
<path fill-rule="evenodd" clip-rule="evenodd" d="M14.5 16.5C16.7091 16.5 18.5 14.7091 18.5 12.5C18.5 10.2909 16.7091 8.5 14.5 8.5C12.2909 8.5 10.5 10.2909 10.5 12.5C10.5 14.7091 12.2909 16.5 14.5 16.5ZM14.5 18C17.5376 18 20 15.5376 20 12.5C20 9.46243 17.5376 7 14.5 7C11.4624 7 9 9.46243 9 12.5C9 15.5376 11.4624 18 14.5 18Z" fill="current"/>
<path fill-rule="evenodd" clip-rule="evenodd" d="M20.9697 21.0304L16.9697 17.0304L18.0304 15.9697L22.0304 19.9697L20.9697 21.0304Z" fill="current"/>
</svg>
