<svg width="24" height="24" viewBox="0 0 24 24" fill="none" xmlns="http://www.w3.org/2000/svg">
<mask id="path-1-inside-1_901_2988" fill="white">
<path fill-rule="evenodd" clip-rule="evenodd" d="M12 2L3 7.96078V21H9V12H15V21H21V7.96078L12 2Z"/>
</mask>
<path fill-rule="evenodd" clip-rule="evenodd" d="M12 2L3 7.96078V21H9V12H15V21H21V7.96078L12 2Z" fill="#282828"/>
<path d="M3 7.96078L2.17173 6.7102L1.5 7.15509V7.96078H3ZM12 2L12.8283 0.749415L12 0.200842L11.1717 0.749415L12 2ZM3 21H1.5V22.5H3V21ZM9 21V22.5H10.5V21H9ZM9 12V10.5H7.5V12H9ZM15 12H16.5V10.5H15V12ZM15 21H13.5V22.5H15V21ZM21 21V22.5H22.5V21H21ZM21 7.96078H22.5V7.15509L21.8283 6.7102L21 7.96078ZM3.82827 9.21137L12.8283 3.25058L11.1717 0.749415L2.17173 6.7102L3.82827 9.21137ZM4.5 21V7.96078H1.5V21H4.5ZM9 19.5H3V22.5H9V19.5ZM10.5 21V12H7.5V21H10.5ZM9 13.5H15V10.5H9V13.5ZM13.5 12V21H16.5V12H13.5ZM21 19.5H15V22.5H21V19.5ZM19.5 7.96078V21H22.5V7.96078H19.5ZM11.1717 3.25058L20.1717 9.21137L21.8283 6.7102L12.8283 0.749415L11.1717 3.25058Z" fill="#282828" mask="url(#path-1-inside-1_901_2988)"/>
</svg>
