<svg width="24" height="24" viewBox="0 0 24 24" fill="none" xmlns="http://www.w3.org/2000/svg">
<path fill-rule="evenodd" clip-rule="evenodd" d="M3.54167 12.2724L11.9997 21L20.4578 12.2724C21.4452 11.254 22 9.87245 22 8.43187C22 6.99128 21.4452 5.60974 20.4578 4.59133C19.4709 3.57244 18.132 3 16.7359 3C15.354 3 14.0282 3.56082 13.0443 4.56028L13.0139 4.59133L11.9997 5.63785L10.9855 4.59133L10.9552 4.56028C8.89732 2.47031 5.58716 2.48066 3.54168 4.59133C1.48611 6.7124 1.48611 10.1513 3.54167 12.2724ZM9.90838 5.63523C8.44217 4.12229 6.08505 4.12229 4.61884 5.63523C3.12705 7.17455 3.12705 9.68919 4.61884 11.2285L11.9997 18.8446L19.3806 11.2285C20.092 10.4948 20.5 9.48943 20.5 8.43187C20.5 7.37431 20.0923 6.3692 19.3809 5.63548C18.6714 4.903 17.7186 4.5 16.7359 4.5C15.7532 4.5 14.8006 4.90275 14.0911 5.63523L12 7.5L9.90838 5.63523Z" fill="#A4A9B1"/>
</svg>
