<svg width="22" height="22" viewBox="0 0 22 22" fill="none" xmlns="http://www.w3.org/2000/svg">
<path d="M12.6475 4.90465L12.6476 4.90448C13.3674 4.16144 14.337 3.75 15.3411 3.75C16.3453 3.75 17.3149 4.16144 18.0346 4.90448L18.035 4.90482C18.7561 5.64857 19.1666 6.66403 19.1666 7.72921C19.1666 8.7944 18.7561 9.80985 18.035 10.5536L18.0348 10.5538L17.1051 11.5131L10.9997 17.8131L4.89425 11.5131L3.96456 10.5538C2.45615 8.99729 2.45615 6.46113 3.96456 4.90465C5.45593 3.36576 7.86053 3.36576 9.35189 4.90465L10.2816 5.86396C10.4699 6.05832 10.729 6.16803 10.9997 6.16803C11.2703 6.16803 11.5294 6.05832 11.7178 5.86396L12.6475 4.90465Z" fill="current" stroke="current" stroke-width="2" stroke-linecap="round" stroke-linejoin="round"/>
</svg>
