<svg width="24" height="24" viewBox="0 0 24 24" fill="none" xmlns="http://www.w3.org/2000/svg">
<path fill-rule="evenodd" clip-rule="evenodd" d="M12 7C12.825 7 13.5 6.325 13.5 5.5C13.5 4.675 12.825 4 12 4C11.175 4 10.5 4.675 10.5 5.5C10.5 6.325 11.175 7 12 7ZM12 10.5C11.175 10.5 10.5 11.175 10.5 12C10.5 12.825 11.175 13.5 12 13.5C12.825 13.5 13.5 12.825 13.5 12C13.5 11.175 12.825 10.5 12 10.5ZM10.5 18.5C10.5 17.675 11.175 17 12 17C12.825 17 13.5 17.675 13.5 18.5C13.5 19.325 12.825 20 12 20C11.175 20 10.5 19.325 10.5 18.5Z" fill="#282828"/>
</svg>
