<svg width="24" height="24" viewBox="0 0 24 24" fill="none" xmlns="http://www.w3.org/2000/svg">
<path d="M18 8C18 11.3137 15.3137 14 12 14C8.68629 14 6 11.3137 6 8C6 4.68629 8.68629 2 12 2C15.3137 2 18 4.68629 18 8Z" fill="current"/>
<path fill-rule="evenodd" clip-rule="evenodd" d="M12 12.5C14.4853 12.5 16.5 10.4853 16.5 8C16.5 5.51472 14.4853 3.5 12 3.5C9.51472 3.5 7.5 5.51472 7.5 8C7.5 10.4853 9.51472 12.5 12 12.5ZM12 14C15.3137 14 18 11.3137 18 8C18 4.68629 15.3137 2 12 2C8.68629 2 6 4.68629 6 8C6 11.3137 8.68629 14 12 14Z" fill="current"/>
<circle cx="10.6364" cy="5.63663" r="0.909091" fill="white"/>
<path fill-rule="evenodd" clip-rule="evenodd" d="M11.25 22V13H12.75V22H11.25Z" fill="current"/>
</svg>
