<svg width="24" height="24" viewBox="0 0 24 24" fill="none" xmlns="http://www.w3.org/2000/svg">
<path fill-rule="evenodd" clip-rule="evenodd" d="M12 8.75C10.2051 8.75 8.75 10.2051 8.75 12C8.75 13.7949 10.2051 15.25 12 15.25C13.7949 15.25 15.25 13.7949 15.25 12C15.25 10.2051 13.7949 8.75 12 8.75ZM7.25 12C7.25 9.37665 9.37665 7.25 12 7.25C14.6234 7.25 16.75 9.37665 16.75 12C16.75 14.6234 14.6234 16.75 12 16.75C9.37665 16.75 7.25 14.6234 7.25 12Z" fill="#282828"/>
<path fill-rule="evenodd" clip-rule="evenodd" d="M18.7503 11.25C18.7503 10.9539 18.8379 10.6643 19.0022 10.4179L19.7733 9.2613C19.6752 8.98169 19.5619 8.70762 19.434 8.4403L18.0701 8.16749C17.7797 8.10941 17.513 7.96668 17.3036 7.75728L16.243 6.69664C16.0336 6.48724 15.8908 6.22055 15.8328 5.93017L15.5599 4.56616C15.2926 4.43829 15.0185 4.32505 14.7389 4.22694L13.5823 4.99798C13.3359 5.16224 13.0464 5.2499 12.7503 5.2499H11.2503C10.9541 5.2499 10.6646 5.16224 10.4182 4.99798L9.26165 4.22694C8.98201 4.32505 8.70792 4.43829 8.44058 4.56615L8.16785 5.93002C8.10977 6.22043 7.96704 6.48714 7.75763 6.69655L6.69689 7.75728C6.48748 7.96669 6.22077 8.10943 5.93037 8.1675L4.56646 8.44024C4.43857 8.70757 4.32532 8.98166 4.2272 9.2613L4.99823 10.4179C5.1625 10.6643 5.25016 10.9538 5.25016 11.2499V12.7499C5.25016 13.046 5.1625 13.3356 4.99823 13.582L4.22718 14.7385C4.32528 15.0182 4.43851 15.2923 4.56638 15.5596L5.93042 15.8324C6.2208 15.8905 6.4875 16.0332 6.69689 16.2426L7.75753 17.3033C7.96695 17.5127 8.10968 17.7794 8.16775 18.0698L8.44051 19.4338C8.7078 19.5617 8.98185 19.6749 9.26145 19.773L10.4181 19.0019C10.6645 18.8376 10.954 18.75 11.2502 18.75H12.7502C13.0463 18.75 13.3358 18.8377 13.5822 19.0019L14.7389 19.773C15.0185 19.675 15.2925 19.5617 15.5598 19.4339L15.8327 18.0698C15.8907 17.7795 16.0335 17.5128 16.2428 17.3034L17.3035 16.2427C17.5129 16.0332 17.7796 15.8905 18.07 15.8324L19.4341 15.5596C19.5619 15.2923 19.6752 15.0183 19.7733 14.7387L19.0022 13.5821C18.8379 13.3357 18.7503 13.0461 18.7503 12.75V11.25ZM21.3169 14.8433C21.1346 15.4435 20.8944 16.0247 20.5996 16.5784C20.5456 16.677 20.4705 16.7624 20.3796 16.8286C20.2888 16.8948 20.1844 16.9402 20.074 16.9614L18.3642 17.3033L17.3035 18.364L16.9615 20.0739C16.9403 20.1843 16.895 20.2886 16.8288 20.3795C16.7626 20.4703 16.6772 20.5454 16.5786 20.5994C16.0248 20.8942 15.4437 21.1344 14.8434 21.3167C14.7353 21.3482 14.6216 21.3556 14.5103 21.3382C14.399 21.3209 14.2929 21.2793 14.1996 21.2163L12.7502 20.25H11.2502L9.80073 21.2162C9.70736 21.2792 9.60127 21.3208 9.49001 21.3382C9.37874 21.3555 9.26501 21.3482 9.15691 21.3166C8.55662 21.1344 7.97549 20.8941 7.42174 20.5993C7.32316 20.5453 7.23772 20.4702 7.17152 20.3794C7.10532 20.2885 7.06 20.1842 7.03879 20.0738L6.69687 18.3639L5.63623 17.3033L3.92635 16.9613C3.81596 16.9401 3.71162 16.8947 3.62078 16.8285C3.52994 16.7623 3.45483 16.6769 3.40082 16.5783C3.10603 16.0245 2.86581 15.4434 2.68356 14.8431C2.65201 14.735 2.64465 14.6212 2.662 14.51C2.67935 14.3987 2.72098 14.2926 2.78394 14.1992L3.75016 12.7499V11.2499L2.78395 9.80058C2.72098 9.70721 2.67934 9.60112 2.66199 9.48984C2.64464 9.37856 2.652 9.26483 2.68355 9.15672C2.86585 8.55642 3.1061 7.97527 3.40092 7.42149C3.45493 7.3229 3.53004 7.23746 3.62088 7.17126C3.71173 7.10506 3.81607 7.05974 3.92646 7.03852L5.63623 6.69662L6.69697 5.63589L7.03887 3.92613C7.06009 3.81573 7.10542 3.71139 7.17162 3.62054C7.23783 3.52969 7.32327 3.45458 7.42186 3.40057C7.97564 3.1058 8.55678 2.86558 9.15706 2.68331C9.26517 2.65176 9.3789 2.6444 9.49018 2.66175C9.60146 2.67909 9.70756 2.72073 9.80093 2.78369L11.2503 3.7499H12.7503L14.1996 2.78369C14.2929 2.72073 14.399 2.67909 14.5103 2.66174C14.6216 2.6444 14.7353 2.65176 14.8434 2.68331C15.4437 2.86559 16.0249 3.10581 16.5787 3.40058C16.6772 3.45458 16.7627 3.52969 16.8289 3.62054C16.8951 3.71138 16.9404 3.81572 16.9616 3.92611L17.3036 5.63598L18.3643 6.69662L20.0741 7.03861C20.1845 7.05983 20.2888 7.10515 20.3796 7.17135C20.4705 7.23755 20.5456 7.32299 20.5996 7.42156C20.8944 7.97532 21.1346 8.55644 21.3169 9.15671C21.3485 9.26483 21.3559 9.37856 21.3385 9.48984C21.3212 9.60112 21.2795 9.70722 21.2165 9.80059L20.2503 11.25V12.75L21.2165 14.1994C21.2795 14.2928 21.3211 14.3989 21.3385 14.5102C21.3559 14.6214 21.3485 14.7352 21.3169 14.8433ZM15.0316 19.9682L15.0382 19.9726L15.0382 19.9726C15.036 19.9712 15.0338 19.9697 15.0316 19.9682ZM19.9685 8.96853L19.9729 8.96193L19.9729 8.96194C19.9714 8.96413 19.9699 8.96632 19.9685 8.96853Z" fill="#282828"/>
</svg>
