<svg width="52" height="58" viewBox="0 0 52 58" fill="none" xmlns="http://www.w3.org/2000/svg">
<path d="M23.5531 55.8877L23.5547 55.8905C24.4223 57.3699 26.5777 57.3698 27.4453 55.8905L30.4271 50.8059C36.6584 50.2278 41.4925 48.3417 44.9171 44.9171C49.1137 40.7205 51 34.4073 51 26C51 17.5927 49.1137 11.2795 44.9171 7.08289C40.7205 2.88629 34.4073 1 26 1C17.5927 1 11.2795 2.88629 7.08289 7.08289C2.88629 11.2795 1 17.5927 1 26C1 34.4073 2.88629 40.7205 7.08289 44.9171C10.3141 48.1483 14.8001 50.0099 20.5306 50.6954L23.5531 55.8877Z" fill="#232529" stroke="white" stroke-width="2"/>
<path fill-rule="evenodd" clip-rule="evenodd" d="M16.6665 34.6665V36.6665H33.9998V34.6665H16.6665Z" fill="white"/>
<path fill-rule="evenodd" clip-rule="evenodd" d="M37 23.6665H33.3333V21.6665H39V29.2327L31.8478 32.1907L30.8188 30.4757L37 28.1003V23.6665Z" fill="white"/>
<path fill-rule="evenodd" clip-rule="evenodd" d="M19.6192 36.6665L15.3335 16.6665H35.3335L31.0478 36.6665H19.6192ZM30.0594 21.5145L28.7261 26.8478L30.6664 27.3329L31.9997 21.9996L30.0594 21.5145Z" fill="white"/>
</svg>
