<svg width="26" height="26" viewBox="0 0 26 26" fill="none" xmlns="http://www.w3.org/2000/svg">
<path d="M13 0.5C8.79637 0.5 5.63975 1.44315 3.54145 3.54145C1.44315 5.63975 0.5 8.79637 0.5 13C0.5 17.2036 1.44315 20.3603 3.54145 22.4586C5.63975 24.5569 8.79637 25.5 13 25.5C17.2036 25.5 20.3603 24.5569 22.4586 22.4586C24.5569 20.3603 25.5 17.2036 25.5 13C25.5 8.79637 24.5569 5.63975 22.4586 3.54145C20.3603 1.44315 17.2036 0.5 13 0.5Z" fill="#232529" stroke="white"/>
<path fill-rule="evenodd" clip-rule="evenodd" d="M15.0509 12.5102L13.3843 9.84357L13.9496 9.49023L15.6163 12.1569L15.0509 12.5102Z" fill="white"/>
<path fill-rule="evenodd" clip-rule="evenodd" d="M7.02782 15.9998H6.3335V12.9998L8.3335 11.6665H10.3335V10.6665L11.0002 9.6665H11.6668L13.0002 11.6665H16.0002L19.6668 12.9998V15.9998H18.9725C18.8138 16.9457 17.9912 17.6665 17.0002 17.6665C16.0092 17.6665 15.1865 16.9457 15.0278 15.9998H10.9725C10.8138 16.9457 9.99116 17.6665 9.00016 17.6665C8.00916 17.6665 7.18651 16.9457 7.02782 15.9998ZM9.00016 16.6665C9.6445 16.6665 10.1668 16.1442 10.1668 15.4998C10.1668 14.8555 9.6445 14.3332 9.00016 14.3332C8.35583 14.3332 7.8335 14.8555 7.8335 15.4998C7.8335 16.1442 8.35583 16.6665 9.00016 16.6665ZM17.0002 16.6665C17.6445 16.6665 18.1668 16.1442 18.1668 15.4998C18.1668 14.8555 17.6445 14.3332 17.0002 14.3332C16.3558 14.3332 15.8335 14.8555 15.8335 15.4998C15.8335 16.1442 16.3558 16.6665 17.0002 16.6665Z" fill="white"/>
<path fill-rule="evenodd" clip-rule="evenodd" d="M7.18151 16.4998C7.10954 16.343 7.05725 16.1753 7.02782 15.9998H6.3335V12.9998L8.3335 11.6665H10.3335V10.6665L11.0002 9.6665H11.6668L13.0002 11.6665H16.0002L19.6668 12.9998V15.9998H18.9725C18.8138 16.9457 17.9912 17.6665 17.0002 17.6665C16.0092 17.6665 15.1865 16.9457 15.0278 15.9998H10.9725C10.9431 16.1753 10.8908 16.343 10.8188 16.4998C10.5028 17.1883 9.80733 17.6665 9.00016 17.6665C8.193 17.6665 7.49751 17.1883 7.18151 16.4998ZM7.94577 15.9998C8.13301 16.394 8.53476 16.6665 9.00016 16.6665C9.46556 16.6665 9.86731 16.394 10.0546 15.9998C10.0767 15.9533 10.0958 15.9051 10.1117 15.8554C10.1475 15.7433 10.1668 15.6238 10.1668 15.4998C10.1668 15.3687 10.1452 15.2426 10.1053 15.125C9.94918 14.6645 9.51337 14.3332 9.00016 14.3332C8.48696 14.3332 8.05115 14.6645 7.89502 15.125C7.85513 15.2426 7.8335 15.3687 7.8335 15.4998C7.8335 15.6238 7.85284 15.7433 7.88867 15.8554C7.90455 15.9051 7.92366 15.9533 7.94577 15.9998ZM7.3335 14.1153C7.73093 13.6374 8.33002 13.3332 9.00016 13.3332C10.0247 13.3332 10.8831 14.0443 11.1089 14.9998H14.8915C15.1172 14.0443 15.9756 13.3332 17.0002 13.3332C17.6703 13.3332 18.2694 13.6374 18.6668 14.1153V13.7003L15.824 12.6665H12.465L11.3335 10.9693V12.6665H8.63627L7.3335 13.535V14.1153ZM15.895 15.125C15.8551 15.2426 15.8335 15.3687 15.8335 15.4998C15.8335 15.6238 15.8528 15.7433 15.8887 15.8554C16.039 16.3259 16.4798 16.6665 17.0002 16.6665C17.5205 16.6665 17.9613 16.3259 18.1117 15.8554C18.1475 15.7433 18.1668 15.6238 18.1668 15.4998C18.1668 15.3687 18.1452 15.2426 18.1053 15.125C17.9492 14.6645 17.5134 14.3332 17.0002 14.3332C16.487 14.3332 16.0511 14.6645 15.895 15.125Z" fill="white"/>
</svg>
