<svg width="24" height="24" viewBox="0 0 24 24" fill="none" xmlns="http://www.w3.org/2000/svg">
<path fill-rule="evenodd" clip-rule="evenodd" d="M15.0762 11.2654L12.5762 7.26535L13.4242 6.73535L15.9242 10.7354L15.0762 11.2654Z" fill="#282828"/>
<path fill-rule="evenodd" clip-rule="evenodd" d="M3.04148 16.5H2V12L5 10H8V8.5L9 7H10L12 10H16.5L22 12V16.5H20.9585C20.7205 17.9189 19.4865 19 18 19C16.5135 19 15.2795 17.9189 15.0415 16.5H8.95852C8.72048 17.9189 7.4865 19 6 19C4.5135 19 3.27952 17.9189 3.04148 16.5ZM6 17.5C6.9665 17.5 7.75 16.7165 7.75 15.75C7.75 14.7835 6.9665 14 6 14C5.0335 14 4.25 14.7835 4.25 15.75C4.25 16.7165 5.0335 17.5 6 17.5ZM18 17.5C18.9665 17.5 19.75 16.7165 19.75 15.75C19.75 14.7835 18.9665 14 18 14C17.0335 14 16.25 14.7835 16.25 15.75C16.25 16.7165 17.0335 17.5 18 17.5Z" fill="#282828"/>
<path fill-rule="evenodd" clip-rule="evenodd" d="M3.27202 17.25C3.16407 17.0148 3.08564 16.7632 3.04148 16.5H2V12L5 10H8V8.5L9 7H10L12 10H16.5L22 12V16.5H20.9585C20.7205 17.9189 19.4865 19 18 19C16.5135 19 15.2795 17.9189 15.0415 16.5H8.95852C8.91436 16.7632 8.83593 17.0148 8.72798 17.25C8.25398 18.2828 7.21075 19 6 19C4.78925 19 3.74602 18.2828 3.27202 17.25ZM4.41841 16.5C4.69927 17.0912 5.3019 17.5 6 17.5C6.6981 17.5 7.30073 17.0912 7.58159 16.5C7.61475 16.4302 7.64342 16.3579 7.66723 16.2834C7.72099 16.1152 7.75 15.936 7.75 15.75C7.75 15.5533 7.71755 15.3642 7.65771 15.1877C7.42352 14.4971 6.76981 14 6 14C5.23019 14 4.57647 14.4971 4.34229 15.1877C4.28245 15.3642 4.25 15.5533 4.25 15.75C4.25 15.936 4.27902 16.1152 4.33277 16.2834C4.35658 16.3579 4.38525 16.4302 4.41841 16.5ZM3.5 13.6732C4.09615 12.9564 4.99478 12.5 6 12.5C7.53679 12.5 8.82445 13.5666 9.16303 15H14.837C15.1755 13.5666 16.4632 12.5 18 12.5C19.0052 12.5 19.9038 12.9564 20.5 13.6732V13.0506L16.2357 11.5H11.1972L9.5 8.95416V11.5H5.45416L3.5 12.8028V13.6732ZM16.3423 15.1877C16.2824 15.3642 16.25 15.5533 16.25 15.75C16.25 15.936 16.279 16.1152 16.3328 16.2834C16.5583 16.989 17.2195 17.5 18 17.5C18.7805 17.5 19.4417 16.989 19.6672 16.2834C19.721 16.1152 19.75 15.936 19.75 15.75C19.75 15.5533 19.7176 15.3642 19.6577 15.1877C19.4235 14.4971 18.7698 14 18 14C17.2302 14 16.5765 14.4971 16.3423 15.1877Z" fill="#282828"/>
</svg>
