<svg width="38" height="38" viewBox="0 0 38 38" fill="none" xmlns="http://www.w3.org/2000/svg">
<g filter="url(#filter0_d_2193_13479)">
<path d="M7 17C7 8.72 10.72 5 19 5C27.28 5 31 8.72 31 17C31 25.28 27.28 29 19 29C10.72 29 7 25.28 7 17Z" fill="white"/>
<path d="M19 4.5C14.7964 4.5 11.6397 5.44315 9.54145 7.54145C7.44315 9.63975 6.5 12.7964 6.5 17C6.5 21.2036 7.44315 24.3603 9.54145 26.4586C11.6397 28.5569 14.7964 29.5 19 29.5C23.2036 29.5 26.3603 28.5569 28.4586 26.4586C30.5569 24.3603 31.5 21.2036 31.5 17C31.5 12.7964 30.5569 9.63975 28.4586 7.54145C26.3603 5.44315 23.2036 4.5 19 4.5Z" stroke="white"/>
</g>
<path fill-rule="evenodd" clip-rule="evenodd" d="M21.0509 16.5102L19.3843 13.8436L19.9496 13.4902L21.6163 16.1569L21.0509 16.5102Z" fill="#232529"/>
<path fill-rule="evenodd" clip-rule="evenodd" d="M13.0278 19.9998H12.3335V16.9998L14.3335 15.6665H16.3335V14.6665L17.0002 13.6665H17.6668L19.0002 15.6665H22.0002L25.6668 16.9998V19.9998H24.9725C24.8138 20.9457 23.9912 21.6665 23.0002 21.6665C22.0092 21.6665 21.1865 20.9457 21.0278 19.9998H16.9725C16.8138 20.9457 15.9912 21.6665 15.0002 21.6665C14.0092 21.6665 13.1865 20.9457 13.0278 19.9998ZM15.0002 20.6665C15.6445 20.6665 16.1668 20.1442 16.1668 19.4998C16.1668 18.8555 15.6445 18.3332 15.0002 18.3332C14.3558 18.3332 13.8335 18.8555 13.8335 19.4998C13.8335 20.1442 14.3558 20.6665 15.0002 20.6665ZM23.0002 20.6665C23.6445 20.6665 24.1668 20.1442 24.1668 19.4998C24.1668 18.8555 23.6445 18.3332 23.0002 18.3332C22.3558 18.3332 21.8335 18.8555 21.8335 19.4998C21.8335 20.1442 22.3558 20.6665 23.0002 20.6665Z" fill="#232529"/>
<path fill-rule="evenodd" clip-rule="evenodd" d="M13.1815 20.4998C13.1095 20.343 13.0573 20.1753 13.0278 19.9998H12.3335V16.9998L14.3335 15.6665H16.3335V14.6665L17.0002 13.6665H17.6668L19.0002 15.6665H22.0002L25.6668 16.9998V19.9998H24.9725C24.8138 20.9457 23.9912 21.6665 23.0002 21.6665C22.0092 21.6665 21.1865 20.9457 21.0278 19.9998H16.9725C16.9431 20.1753 16.8908 20.343 16.8188 20.4998C16.5028 21.1883 15.8073 21.6665 15.0002 21.6665C14.193 21.6665 13.4975 21.1883 13.1815 20.4998ZM13.9458 19.9998C14.133 20.394 14.5348 20.6665 15.0002 20.6665C15.4656 20.6665 15.8673 20.394 16.0546 19.9998C16.0767 19.9533 16.0958 19.9051 16.1117 19.8554C16.1475 19.7433 16.1668 19.6238 16.1668 19.4998C16.1668 19.3687 16.1452 19.2426 16.1053 19.125C15.9492 18.6645 15.5134 18.3332 15.0002 18.3332C14.487 18.3332 14.0511 18.6645 13.895 19.125C13.8551 19.2426 13.8335 19.3687 13.8335 19.4998C13.8335 19.6238 13.8528 19.7433 13.8887 19.8554C13.9046 19.9051 13.9237 19.9533 13.9458 19.9998ZM13.3335 18.1153C13.7309 17.6374 14.33 17.3332 15.0002 17.3332C16.0247 17.3332 16.8831 18.0443 17.1089 18.9998H20.8915C21.1172 18.0443 21.9756 17.3332 23.0002 17.3332C23.6703 17.3332 24.2694 17.6374 24.6668 18.1153V17.7003L21.824 16.6665H18.465L17.3335 14.9693V16.6665H14.6363L13.3335 17.535V18.1153ZM21.895 19.125C21.8551 19.2426 21.8335 19.3687 21.8335 19.4998C21.8335 19.6238 21.8528 19.7433 21.8887 19.8554C22.039 20.3259 22.4798 20.6665 23.0002 20.6665C23.5205 20.6665 23.9613 20.3259 24.1117 19.8554C24.1475 19.7433 24.1668 19.6238 24.1668 19.4998C24.1668 19.3687 24.1452 19.2426 24.1053 19.125C23.9492 18.6645 23.5134 18.3332 23.0002 18.3332C22.487 18.3332 22.0511 18.6645 21.895 19.125Z" fill="#232529"/>
<defs>
<filter id="filter0_d_2193_13479" x="0" y="0" width="38" height="38" filterUnits="userSpaceOnUse" color-interpolation-filters="sRGB">
<feFlood flood-opacity="0" result="BackgroundImageFix"/>
<feColorMatrix in="SourceAlpha" type="matrix" values="0 0 0 0 0 0 0 0 0 0 0 0 0 0 0 0 0 0 127 0" result="hardAlpha"/>
<feOffset dy="2"/>
<feGaussianBlur stdDeviation="3"/>
<feComposite in2="hardAlpha" operator="out"/>
<feColorMatrix type="matrix" values="0 0 0 0 0.4375 0 0 0 0 0.4375 0 0 0 0 0.4375 0 0 0 0.25 0"/>
<feBlend mode="normal" in2="BackgroundImageFix" result="effect1_dropShadow_2193_13479"/>
<feBlend mode="normal" in="SourceGraphic" in2="effect1_dropShadow_2193_13479" result="shape"/>
</filter>
</defs>
</svg>
