<svg width="52" height="58" viewBox="0 0 52 58" fill="none" xmlns="http://www.w3.org/2000/svg">
<path d="M30.4271 50.8059C36.6584 50.2278 41.4925 48.3417 44.9171 44.9171C49.1137 40.7205 51 34.4073 51 26C51 17.5927 49.1137 11.2795 44.9171 7.08289C40.7205 2.88629 34.4073 1 26 1C17.5927 1 11.2795 2.88629 7.08289 7.08289C2.88629 11.2795 1 17.5927 1 26C1 34.4073 2.88629 40.7205 7.08289 44.9171C10.3141 48.1483 14.8001 50.0099 20.5306 50.6954L23.5531 55.8877L23.5547 55.8905C24.4223 57.3698 26.5777 57.3698 27.4453 55.8905L30.4271 50.8059Z" fill="#232529" stroke="white" stroke-width="2"/>
<path d="M32.6668 12.6665C31.9596 12.6665 31.2813 12.9475 30.7812 13.4476C30.2811 13.9476 30.0002 14.6259 30.0002 15.3332C30.0002 16.0404 30.2811 16.7187 30.7812 17.2188C31.2813 17.7189 31.9596 17.9998 32.6668 17.9998C33.3741 17.9998 34.0523 17.7189 34.5524 17.2188C35.0525 16.7187 35.3335 16.0404 35.3335 15.3332C35.3335 14.6259 35.0525 13.9476 34.5524 13.4476C34.0523 12.9475 33.3741 12.6665 32.6668 12.6665ZM24.1981 16.5701L18.5549 19.4816L19.7788 21.8514L24.4689 19.4295L26.0939 19.9087L23.6903 24.6717C23.4573 25.0756 23.3343 25.5336 23.3335 25.9998C23.3342 26.3949 23.4226 26.7848 23.5924 27.1415C23.7622 27.4982 24.0091 27.8127 24.3153 28.0623C24.3196 28.0658 24.3239 28.0693 24.3283 28.0728L28.4637 31.9269L28.4767 31.9399L26.0835 38.4035L28.5835 39.3306L31.5236 31.3931L31.5158 31.3827L28.6226 26.7134L30.383 23.1925L32.297 25.9998H38.0002V23.3332H33.7033L30.9741 19.328L30.9663 19.3228C30.7834 19.0102 30.5388 18.7382 30.2473 18.5233C29.9558 18.3084 29.6236 18.1551 29.271 18.0728L29.2658 18.0675L24.1981 16.5701ZM22.5887 29.1978L21.8387 29.9998H15.3335V32.6665H22.9923L24.534 31.0233L22.5887 29.1978Z" fill="white"/>
</svg>
