<svg width="24" height="24" viewBox="0 0 24 24" fill="none" xmlns="http://www.w3.org/2000/svg">
<path d="M17 2C16.4696 2 15.9609 2.21071 15.5858 2.58579C15.2107 2.96086 15 3.46957 15 4C15 4.53043 15.2107 5.03914 15.5858 5.41421C15.9609 5.78929 16.4696 6 17 6C17.5304 6 18.0391 5.78929 18.4142 5.41421C18.7893 5.03914 19 4.53043 19 4C19 3.46957 18.7893 2.96086 18.4142 2.58579C18.0391 2.21071 17.5304 2 17 2ZM10.6484 4.92773L6.41602 7.11133L7.33398 8.88867L10.8516 7.07227L12.0703 7.43164L10.2676 11.0039C10.0928 11.3068 10.0006 11.6503 10 12C10.0005 12.2963 10.0668 12.5888 10.1941 12.8563C10.3215 13.1238 10.5067 13.3597 10.7363 13.5469C10.7396 13.5495 10.7428 13.5521 10.7461 13.5547L13.8477 16.4453L13.8574 16.4551L12.0625 21.3027L13.9375 21.998L16.1426 16.0449L16.1367 16.0371L13.9668 12.5352L15.2871 9.89453L16.7227 12H21V10H17.7773L15.7305 6.99609L15.7246 6.99219C15.5874 6.75778 15.404 6.55376 15.1854 6.39258C14.9668 6.2314 14.7176 6.11643 14.4531 6.05469L14.4492 6.05078L10.6484 4.92773ZM9.44141 14.3984L8.87891 15H4V17H9.74414L10.9004 15.7676L9.44141 14.3984Z" fill="#282828"/>
</svg>
