<svg width="52" height="58" viewBox="0 0 52 58" fill="none" xmlns="http://www.w3.org/2000/svg">
<path d="M23.5531 55.8877L23.5547 55.8905C24.4223 57.3699 26.5777 57.3698 27.4453 55.8905L30.4271 50.8059C36.6584 50.2278 41.4925 48.3417 44.9171 44.9171C49.1137 40.7205 51 34.4073 51 26C51 17.5927 49.1137 11.2795 44.9171 7.08289C40.7205 2.88629 34.4073 1 26 1C17.5927 1 11.2795 2.88629 7.08289 7.08289C2.88629 11.2795 1 17.5927 1 26C1 34.4073 2.88629 40.7205 7.08289 44.9171C10.3141 48.1483 14.8001 50.0099 20.5306 50.6954L23.5531 55.8877Z" fill="#232529" stroke="white" stroke-width="2"/>
<path fill-rule="evenodd" clip-rule="evenodd" d="M27.6337 19.3004L31.9341 15L33.041 16.1069L28.7406 20.4073L27.6337 19.3004ZM29.8309 21.4985L29.8998 21.4402L29.9105 21.4509L34.1473 17.2142L35.2542 18.3211L30.9538 22.6214L32.0604 23.728L36.3607 19.4278L37.4676 20.5347L33.1674 24.835L33.1678 24.8354L27.7606 28.0288L26.7637 27.032L17.3331 37L14.6665 34.3334L25.1728 25.441L24.4398 24.7081L27.6332 19.3008L29.8309 21.4985Z" fill="white"/>
</svg>
