<svg width="38" height="38" viewBox="0 0 38 38" fill="none" xmlns="http://www.w3.org/2000/svg">
<g filter="url(#filter0_d_2193_13508)">
<path d="M7 17C7 8.72 10.72 5 19 5C27.28 5 31 8.72 31 17C31 25.28 27.28 29 19 29C10.72 29 7 25.28 7 17Z" fill="white"/>
<path d="M19 4.5C14.7964 4.5 11.6397 5.44315 9.54145 7.54145C7.44315 9.63975 6.5 12.7964 6.5 17C6.5 21.2036 7.44315 24.3603 9.54145 26.4586C11.6397 28.5569 14.7964 29.5 19 29.5C23.2036 29.5 26.3603 28.5569 28.4586 26.4586C30.5569 24.3603 31.5 21.2036 31.5 17C31.5 12.7964 30.5569 9.63975 28.4586 7.54145C26.3603 5.44315 23.2036 4.5 19 4.5Z" stroke="white"/>
</g>
<path d="M22.3332 10.3335C21.9795 10.3335 21.6404 10.474 21.3904 10.724C21.1403 10.9741 20.9998 11.3132 20.9998 11.6668C20.9998 12.0205 21.1403 12.3596 21.3904 12.6096C21.6404 12.8597 21.9795 13.0002 22.3332 13.0002C22.6868 13.0002 23.0259 12.8597 23.276 12.6096C23.526 12.3596 23.6665 12.0205 23.6665 11.6668C23.6665 11.3132 23.526 10.9741 23.276 10.724C23.0259 10.474 22.6868 10.3335 22.3332 10.3335ZM18.0988 12.2853L15.2772 13.741L15.8892 14.9259L18.2342 13.715L19.0467 13.9546L17.8449 16.3361C17.7284 16.5381 17.6669 16.767 17.6665 17.0002C17.6668 17.1977 17.711 17.3927 17.7959 17.571C17.8808 17.7494 18.0043 17.9066 18.1574 18.0314C18.1596 18.0332 18.1617 18.0349 18.1639 18.0366L20.2316 19.9637L20.2381 19.9702L19.0415 23.202L20.2915 23.6655L21.7616 19.6968L21.7576 19.6916L20.311 17.3569L21.1912 15.5965L22.1483 17.0002H24.9998V15.6668H22.8514L21.4868 13.6642L21.4829 13.6616C21.3915 13.5053 21.2691 13.3693 21.1234 13.2619C20.9777 13.1544 20.8116 13.0778 20.6353 13.0366L20.6326 13.034L18.0988 12.2853ZM17.2941 18.5991L16.9191 19.0002H13.6665V20.3335H17.4959L18.2668 19.5119L17.2941 18.5991Z" fill="#282828"/>
<defs>
<filter id="filter0_d_2193_13508" x="0" y="0" width="38" height="38" filterUnits="userSpaceOnUse" color-interpolation-filters="sRGB">
<feFlood flood-opacity="0" result="BackgroundImageFix"/>
<feColorMatrix in="SourceAlpha" type="matrix" values="0 0 0 0 0 0 0 0 0 0 0 0 0 0 0 0 0 0 127 0" result="hardAlpha"/>
<feOffset dy="2"/>
<feGaussianBlur stdDeviation="3"/>
<feComposite in2="hardAlpha" operator="out"/>
<feColorMatrix type="matrix" values="0 0 0 0 0.4375 0 0 0 0 0.4375 0 0 0 0 0.4375 0 0 0 0.25 0"/>
<feBlend mode="normal" in2="BackgroundImageFix" result="effect1_dropShadow_2193_13508"/>
<feBlend mode="normal" in="SourceGraphic" in2="effect1_dropShadow_2193_13508" result="shape"/>
</filter>
</defs>
</svg>
