<svg width="24" height="24" viewBox="0 0 24 24" fill="none" xmlns="http://www.w3.org/2000/svg">
<path d="M3 14.5H21V16H3V14.5Z" fill="#282828"/>
<path fill-rule="evenodd" clip-rule="evenodd" d="M10.7498 3V5H9.24981V3H10.7498ZM13.2498 5V3H14.7498V5H13.2498ZM17.3442 20.3642L14.8442 15.8642L16.1554 15.1358L18.6554 19.6358L17.3442 20.3642ZM5.31445 19.6954L7.31445 15.1954L8.68517 15.8046L6.68517 20.3046L5.31445 19.6954ZM11.2498 20V15.5H12.7498V20H11.2498Z" fill="#282828"/>
<path fill-rule="evenodd" clip-rule="evenodd" d="M4 5V16H20V5H4ZM11.5 14H17.3971L13.5 8L11.7291 10.7265L10.5 9.5L7 14H9.60289H11.5ZM7 9C7.55228 9 8 8.55228 8 8C8 7.44772 7.55228 7 7 7C6.44772 7 6 7.44772 6 8C6 8.55228 6.44772 9 7 9Z" fill="#282828"/>
</svg>
