<svg width="52" height="58" viewBox="0 0 52 58" fill="none" xmlns="http://www.w3.org/2000/svg">
<path d="M23.5531 55.8877L23.5547 55.8905C24.4223 57.3699 26.5777 57.3698 27.4453 55.8905L30.4271 50.8059C36.6584 50.2278 41.4925 48.3417 44.9171 44.9171C49.1137 40.7205 51 34.4073 51 26C51 17.5927 49.1137 11.2795 44.9171 7.08289C40.7205 2.88629 34.4073 1 26 1C17.5927 1 11.2795 2.88629 7.08289 7.08289C2.88629 11.2795 1 17.5927 1 26C1 34.4073 2.88629 40.7205 7.08289 44.9171C10.3141 48.1483 14.8001 50.0099 20.5306 50.6954L23.5531 55.8877Z" fill="#232529" stroke="white" stroke-width="2"/>
<path d="M25.3335 17H16.6668L15.3335 29.6667L20.0002 31.6667V35.6667L16.6668 36.6736V37.6667H25.3335V36.6736L22.0002 35.6667V31.6667L26.6668 29.6667L25.3335 17Z" fill="white"/>
<path d="M24.6665 21.6665L25.3332 28.9998" stroke="black" stroke-width="0.8"/>
<path d="M28.6665 26.3333V17H30.6665V23.6667H31.9998V17H33.9998V23.6667H35.3332V17H37.3332V26.3333L33.9998 29L34.6665 37.6667H31.3332L31.9998 29L28.6665 26.3333Z" fill="white"/>
</svg>
