<svg width="26" height="26" viewBox="0 0 26 26" fill="none" xmlns="http://www.w3.org/2000/svg">
<path d="M13 0.5C8.79637 0.5 5.63975 1.44315 3.54145 3.54145C1.44315 5.63975 0.5 8.79637 0.5 13C0.5 17.2036 1.44315 20.3603 3.54145 22.4586C5.63975 24.5569 8.79637 25.5 13 25.5C17.2036 25.5 20.3603 24.5569 22.4586 22.4586C24.5569 20.3603 25.5 17.2036 25.5 13C25.5 8.79637 24.5569 5.63975 22.4586 3.54145C20.3603 1.44315 17.2036 0.5 13 0.5Z" fill="#232529" stroke="white"/>
<path d="M12.333 9.3335C12.333 9.88578 11.8853 10.3335 11.333 10.3335C10.7807 10.3335 10.333 9.88578 10.333 9.3335C10.333 8.78121 10.7807 8.3335 11.333 8.3335C11.8853 8.3335 12.333 8.78121 12.333 9.3335Z" fill="white"/>
<path d="M15.3332 10.0002L10.9998 11.0002L11.9998 15.0002L9.6665 18.6668L10.6665 19.3335L12.9998 15.3335L13.3332 15.6668L12.6665 19.6668H13.6665L13.9998 17.6668L14.3332 15.6668L13.6665 11.3335L16.3332 10.6668V10.0002L10.6665 6.3335L9.6665 7.00016L10.3332 7.3335L10.6665 6.66683L15.3332 10.0002Z" fill="white"/>
</svg>
