<svg width="38" height="38" viewBox="0 0 38 38" fill="none" xmlns="http://www.w3.org/2000/svg">
<g filter="url(#filter0_d_2193_13508)">
<path d="M7 17C7 8.72 10.72 5 19 5C27.28 5 31 8.72 31 17C31 25.28 27.28 29 19 29C10.72 29 7 25.28 7 17Z" fill="white"/>
<path d="M19 4.5C14.7964 4.5 11.6397 5.44315 9.54145 7.54145C7.44315 9.63975 6.5 12.7964 6.5 17C6.5 21.2036 7.44315 24.3603 9.54145 26.4586C11.6397 28.5569 14.7964 29.5 19 29.5C23.2036 29.5 26.3603 28.5569 28.4586 26.4586C30.5569 24.3603 31.5 21.2036 31.5 17C31.5 12.7964 30.5569 9.63975 28.4586 7.54145C26.3603 5.44315 23.2036 4.5 19 4.5Z" stroke="white"/>
</g>
<path d="M18.333 13.3335C18.333 13.8858 17.8853 14.3335 17.333 14.3335C16.7807 14.3335 16.333 13.8858 16.333 13.3335C16.333 12.7812 16.7807 12.3335 17.333 12.3335C17.8853 12.3335 18.333 12.7812 18.333 13.3335Z" fill="#232529"/>
<path d="M21.3332 14.0002L16.9998 15.0002L17.9998 19.0002L15.6665 22.6668L16.6665 23.3335L18.9998 19.3335L19.3332 19.6668L18.6665 23.6668H19.6665L19.9998 21.6668L20.3332 19.6668L19.6665 15.3335L22.3332 14.6668V14.0002L16.6665 10.3335L15.6665 11.0002L16.3332 11.3335L16.6665 10.6668L21.3332 14.0002Z" fill="#232529"/>
<defs>
<filter id="filter0_d_2193_13508" x="0" y="0" width="38" height="38" filterUnits="userSpaceOnUse" color-interpolation-filters="sRGB">
<feFlood flood-opacity="0" result="BackgroundImageFix"/>
<feColorMatrix in="SourceAlpha" type="matrix" values="0 0 0 0 0 0 0 0 0 0 0 0 0 0 0 0 0 0 127 0" result="hardAlpha"/>
<feOffset dy="2"/>
<feGaussianBlur stdDeviation="3"/>
<feComposite in2="hardAlpha" operator="out"/>
<feColorMatrix type="matrix" values="0 0 0 0 0.4375 0 0 0 0 0.4375 0 0 0 0 0.4375 0 0 0 0.25 0"/>
<feBlend mode="normal" in2="BackgroundImageFix" result="effect1_dropShadow_2193_13508"/>
<feBlend mode="normal" in="SourceGraphic" in2="effect1_dropShadow_2193_13508" result="shape"/>
</filter>
</defs>
</svg>
