<svg width="26" height="26" viewBox="0 0 26 26" fill="none" xmlns="http://www.w3.org/2000/svg">
<path d="M13 0.5C8.79637 0.5 5.63975 1.44315 3.54145 3.54145C1.44315 5.63975 0.5 8.79637 0.5 13C0.5 17.2036 1.44315 20.3603 3.54145 22.4586C5.63975 24.5569 8.79637 25.5 13 25.5C17.2036 25.5 20.3603 24.5569 22.4586 22.4586C24.5569 20.3603 25.5 17.2036 25.5 13C25.5 8.79637 24.5569 5.63975 22.4586 3.54145C20.3603 1.44315 17.2036 0.5 13 0.5Z" fill="#232529" stroke="white"/>
<path fill-rule="evenodd" clip-rule="evenodd" d="M13.8171 9.15017L15.9673 7L16.5207 7.55346L14.3706 9.70363L13.8171 9.15017ZM14.9158 10.2492L14.9502 10.22L14.9556 10.2254L17.074 8.10705L17.6275 8.66051L15.4773 10.8107L16.0306 11.364L18.1807 9.21395L18.7341 9.7674L16.5841 11.9175L16.5842 11.9176L13.8806 13.5143L13.3822 13.0159L8.66691 17.9999L7.33357 16.6666L12.5867 12.2204L12.2202 11.854L13.8169 9.15034L14.9158 10.2492Z" fill="white"/>
<path fill-rule="evenodd" clip-rule="evenodd" d="M13.8171 9.15017L15.9673 7L16.5207 7.55346L14.3706 9.70363L13.8171 9.15017ZM14.9158 10.2492L14.9502 10.22L14.9556 10.2254L17.074 8.10705L17.6275 8.66051L15.4773 10.8107L16.0306 11.364L18.1807 9.21395L18.7341 9.7674L16.5841 11.9175L16.5842 11.9176L13.8806 13.5143L13.3822 13.0159L8.66691 17.9999L7.33357 16.6666L12.5867 12.2204L12.2202 11.854L13.8169 9.15034L14.9158 10.2492Z" fill="white"/>
</svg>
