<svg width="52" height="58" viewBox="0 0 52 58" fill="none" xmlns="http://www.w3.org/2000/svg">
<path d="M23.5531 55.8877L23.5547 55.8905C24.4223 57.3699 26.5777 57.3698 27.4453 55.8905L30.4271 50.8059C36.6584 50.2278 41.4925 48.3417 44.9171 44.9171C49.1137 40.7205 51 34.4073 51 26C51 17.5927 49.1137 11.2795 44.9171 7.08289C40.7205 2.88629 34.4073 1 26 1C17.5927 1 11.2795 2.88629 7.08289 7.08289C2.88629 11.2795 1 17.5927 1 26C1 34.4073 2.88629 40.7205 7.08289 44.9171C10.3141 48.1483 14.8001 50.0099 20.5306 50.6954L23.5531 55.8877Z" fill="#232529" stroke="white" stroke-width="2"/>
<path d="M24.667 18.6665C24.667 19.7711 23.7716 20.6665 22.667 20.6665C21.5624 20.6665 20.667 19.7711 20.667 18.6665C20.667 17.5619 21.5624 16.6665 22.667 16.6665C23.7716 16.6665 24.667 17.5619 24.667 18.6665Z" fill="white"/>
<path d="M30.6668 19.9998L22.0002 21.9998L24.0002 29.9998L19.3335 37.3332L21.3335 38.6665L26.0002 30.6665L26.6668 31.3332L25.3335 39.3332H27.3335L28.0002 35.3332L28.6668 31.3332L27.3335 22.6665L32.6668 21.3332V19.9998L21.3335 12.6665L19.3335 13.9998L20.6668 14.6665L21.3335 13.3332L30.6668 19.9998Z" fill="white"/>
</svg>
