<svg width="52" height="58" viewBox="0 0 52 58" fill="none" xmlns="http://www.w3.org/2000/svg">
<path d="M30.4271 50.8059C36.6584 50.2278 41.4925 48.3417 44.9171 44.9171C49.1137 40.7205 51 34.4073 51 26C51 17.5927 49.1137 11.2795 44.9171 7.08289C40.7205 2.88629 34.4073 1 26 1C17.5927 1 11.2795 2.88629 7.08289 7.08289C2.88629 11.2795 1 17.5927 1 26C1 34.4073 2.88629 40.7205 7.08289 44.9171C10.3141 48.1483 14.8001 50.0099 20.5306 50.6954L23.5531 55.8877L23.5547 55.8905C24.4223 57.3698 26.5777 57.3698 27.4453 55.8905L30.4271 50.8059Z" fill="#232529" stroke="white" stroke-width="2"/>
<path d="M14 30.3335H38V32.3335H14V30.3335Z" fill="white"/>
<path fill-rule="evenodd" clip-rule="evenodd" d="M24.3331 15V17.6667H22.3331V15H24.3331ZM27.6664 17.6667V15H29.6664V17.6667H27.6664ZM33.1256 38.1523L29.7923 32.1523L31.5406 31.181L34.8739 37.181L33.1256 38.1523ZM17.0859 37.2605L19.7526 31.2605L21.5802 32.0728L18.9136 38.0728L17.0859 37.2605ZM24.9997 37.6667V31.6667H26.9997V37.6667H24.9997Z" fill="white"/>
<path fill-rule="evenodd" clip-rule="evenodd" d="M15.3335 17.6665V32.3332H36.6668V17.6665H15.3335ZM25.3335 29.6665H33.1963L28.0002 21.6665L25.639 25.3018L24.0002 23.6665L19.3335 29.6665H22.804H25.3335ZM19.3335 22.9998C20.0699 22.9998 20.6668 22.4029 20.6668 21.6665C20.6668 20.9301 20.0699 20.3332 19.3335 20.3332C18.5971 20.3332 18.0002 20.9301 18.0002 21.6665C18.0002 22.4029 18.5971 22.9998 19.3335 22.9998Z" fill="white"/>
</svg>
