<svg width="26" height="26" viewBox="0 0 26 26" fill="none" xmlns="http://www.w3.org/2000/svg">
<path d="M13 0.5C8.79637 0.5 5.63975 1.44315 3.54145 3.54145C1.44315 5.63975 0.5 8.79637 0.5 13C0.5 17.2036 1.44315 20.3603 3.54145 22.4586C5.63975 24.5569 8.79637 25.5 13 25.5C17.2036 25.5 20.3603 24.5569 22.4586 22.4586C24.5569 20.3603 25.5 17.2036 25.5 13C25.5 8.79637 24.5569 5.63975 22.4586 3.54145C20.3603 1.44315 17.2036 0.5 13 0.5Z" fill="#232529" stroke="white"/>
<path d="M7 14.6665H19V15.6665H7V14.6665Z" fill="white"/>
<path fill-rule="evenodd" clip-rule="evenodd" d="M12.1665 7V8.33333H11.1665V7H12.1665ZM13.8332 8.33333V7H14.8332V8.33333H13.8332ZM16.5628 18.5762L14.8961 15.5762L15.7703 15.0905L17.437 18.0905L16.5628 18.5762ZM8.54297 18.1303L9.8763 15.1303L10.7901 15.5364L9.45678 18.5364L8.54297 18.1303ZM12.4999 18.3333V15.3333H13.4999V18.3333H12.4999Z" fill="white"/>
<path fill-rule="evenodd" clip-rule="evenodd" d="M7.6665 8.3335V15.6668H18.3332V8.3335H7.6665ZM12.6665 14.3335H16.5979L13.9998 10.3335L12.8192 12.1511L11.9998 11.3335L9.6665 14.3335H11.4018H12.6665ZM9.6665 11.0002C10.0347 11.0002 10.3332 10.7017 10.3332 10.3335C10.3332 9.96531 10.0347 9.66683 9.6665 9.66683C9.29831 9.66683 8.99984 9.96531 8.99984 10.3335C8.99984 10.7017 9.29831 11.0002 9.6665 11.0002Z" fill="white"/>
</svg>
