<svg width="38" height="38" viewBox="0 0 38 38" fill="none" xmlns="http://www.w3.org/2000/svg">
<g filter="url(#filter0_d_2193_13486)">
<path d="M7 17C7 8.72 10.72 5 19 5C27.28 5 31 8.72 31 17C31 25.28 27.28 29 19 29C10.72 29 7 25.28 7 17Z" fill="white"/>
<path d="M19 4.5C14.7964 4.5 11.6397 5.44315 9.54145 7.54145C7.44315 9.63975 6.5 12.7964 6.5 17C6.5 21.2036 7.44315 24.3603 9.54145 26.4586C11.6397 28.5569 14.7964 29.5 19 29.5C23.2036 29.5 26.3603 28.5569 28.4586 26.4586C30.5569 24.3603 31.5 21.2036 31.5 17C31.5 12.7964 30.5569 9.63975 28.4586 7.54145C26.3603 5.44315 23.2036 4.5 19 4.5Z" stroke="white"/>
</g>
<path d="M13 18.6665H25V19.6665H13V18.6665Z" fill="#232529"/>
<path fill-rule="evenodd" clip-rule="evenodd" d="M18.1665 11V12.3333H17.1665V11H18.1665ZM19.8332 12.3333V11H20.8332V12.3333H19.8332ZM22.5628 22.5762L20.8961 19.5762L21.7703 19.0905L23.437 22.0905L22.5628 22.5762ZM14.543 22.1303L15.8763 19.1303L16.7901 19.5364L15.4568 22.5364L14.543 22.1303ZM18.4999 22.3333V19.3333H19.4999V22.3333H18.4999Z" fill="#232529"/>
<path fill-rule="evenodd" clip-rule="evenodd" d="M13.6665 12.3335V19.6668H24.3332V12.3335H13.6665ZM18.6665 18.3335H22.5979L19.9998 14.3335L18.8192 16.1511L17.9998 15.3335L15.6665 18.3335H17.4018H18.6665ZM15.6665 15.0002C16.0347 15.0002 16.3332 14.7017 16.3332 14.3335C16.3332 13.9653 16.0347 13.6668 15.6665 13.6668C15.2983 13.6668 14.9998 13.9653 14.9998 14.3335C14.9998 14.7017 15.2983 15.0002 15.6665 15.0002Z" fill="#232529"/>
<defs>
<filter id="filter0_d_2193_13486" x="0" y="0" width="38" height="38" filterUnits="userSpaceOnUse" color-interpolation-filters="sRGB">
<feFlood flood-opacity="0" result="BackgroundImageFix"/>
<feColorMatrix in="SourceAlpha" type="matrix" values="0 0 0 0 0 0 0 0 0 0 0 0 0 0 0 0 0 0 127 0" result="hardAlpha"/>
<feOffset dy="2"/>
<feGaussianBlur stdDeviation="3"/>
<feComposite in2="hardAlpha" operator="out"/>
<feColorMatrix type="matrix" values="0 0 0 0 0.4375 0 0 0 0 0.4375 0 0 0 0 0.4375 0 0 0 0.25 0"/>
<feBlend mode="normal" in2="BackgroundImageFix" result="effect1_dropShadow_2193_13486"/>
<feBlend mode="normal" in="SourceGraphic" in2="effect1_dropShadow_2193_13486" result="shape"/>
</filter>
</defs>
</svg>
