<svg width="52" height="58" viewBox="0 0 52 58" fill="none" xmlns="http://www.w3.org/2000/svg">
<path d="M23.5531 55.8877L23.5547 55.8905C24.4223 57.3699 26.5777 57.3698 27.4453 55.8905L30.4271 50.8059C36.6584 50.2278 41.4925 48.3417 44.9171 44.9171C49.1137 40.7205 51 34.4073 51 26C51 17.5927 49.1137 11.2795 44.9171 7.08289C40.7205 2.88629 34.4073 1 26 1C17.5927 1 11.2795 2.88629 7.08289 7.08289C2.88629 11.2795 1 17.5927 1 26C1 34.4073 2.88629 40.7205 7.08289 44.9171C10.3141 48.1483 14.8001 50.0099 20.5306 50.6954L23.5531 55.8877Z" fill="#232529" stroke="white" stroke-width="2"/>
<path fill-rule="evenodd" clip-rule="evenodd" d="M30.1014 25.0205L26.7681 19.6871L27.8987 18.9805L31.2321 24.3138L30.1014 25.0205Z" fill="white"/>
<path fill-rule="evenodd" clip-rule="evenodd" d="M14.0551 32.0002H12.6665V26.0002L16.6665 23.3335H20.6665V21.3335L21.9998 19.3335H23.3332L25.9998 23.3335H31.9998L39.3332 26.0002V32.0002H37.9445C37.6271 33.892 35.9818 35.3335 33.9998 35.3335C32.0178 35.3335 30.3725 33.892 30.0551 32.0002H21.9445C21.6271 33.892 19.9818 35.3335 17.9998 35.3335C16.0178 35.3335 14.3725 33.892 14.0551 32.0002ZM17.9998 33.3335C19.2885 33.3335 20.3332 32.2888 20.3332 31.0002C20.3332 29.7115 19.2885 28.6668 17.9998 28.6668C16.7112 28.6668 15.6665 29.7115 15.6665 31.0002C15.6665 32.2888 16.7112 33.3335 17.9998 33.3335ZM33.9998 33.3335C35.2885 33.3335 36.3332 32.2888 36.3332 31.0002C36.3332 29.7115 35.2885 28.6668 33.9998 28.6668C32.7112 28.6668 31.6665 29.7115 31.6665 31.0002C31.6665 32.2888 32.7112 33.3335 33.9998 33.3335Z" fill="white"/>
<path fill-rule="evenodd" clip-rule="evenodd" d="M14.3625 33.0002C14.2186 32.6865 14.114 32.3511 14.0551 32.0002H12.6665V26.0002L16.6665 23.3335H20.6665V21.3335L21.9998 19.3335H23.3332L25.9998 23.3335H31.9998L39.3332 26.0002V32.0002H37.9445C37.6271 33.892 35.9818 35.3335 33.9998 35.3335C32.0178 35.3335 30.3725 33.892 30.0551 32.0002H21.9445C21.8857 32.3511 21.7811 32.6865 21.6371 33.0002C21.0051 34.3772 19.6142 35.3335 17.9998 35.3335C16.3855 35.3335 14.9945 34.3772 14.3625 33.0002ZM15.891 32.0002C16.2655 32.7885 17.069 33.3335 17.9998 33.3335C18.9306 33.3335 19.7341 32.7885 20.1086 32.0002C20.1528 31.9071 20.1911 31.8107 20.2228 31.7113C20.2945 31.4871 20.3332 31.2482 20.3332 31.0002C20.3332 30.7379 20.2899 30.4858 20.2101 30.2505C19.8979 29.3296 19.0262 28.6668 17.9998 28.6668C16.9734 28.6668 16.1018 29.3296 15.7896 30.2505C15.7098 30.4858 15.6665 30.7379 15.6665 31.0002C15.6665 31.2482 15.7052 31.4871 15.7769 31.7113C15.8086 31.8107 15.8468 31.9071 15.891 32.0002ZM14.6665 28.2311C15.4614 27.2753 16.6595 26.6668 17.9998 26.6668C20.0489 26.6668 21.7658 28.089 22.2172 30.0002H29.7825C30.2339 28.089 31.9508 26.6668 33.9998 26.6668C35.3401 26.6668 36.5383 27.2753 37.3332 28.2311V27.401L31.6475 25.3335H24.9295L22.6665 21.939V25.3335H17.2721L14.6665 27.0705V28.2311ZM31.7896 30.2505C31.7098 30.4858 31.6665 30.7379 31.6665 31.0002C31.6665 31.2482 31.7052 31.4871 31.7769 31.7113C32.0776 32.6522 32.9592 33.3335 33.9998 33.3335C35.0405 33.3335 35.9221 32.6522 36.2228 31.7113C36.2945 31.4871 36.3332 31.2482 36.3332 31.0002C36.3332 30.7379 36.2899 30.4858 36.2101 30.2505C35.8979 29.3296 35.0263 28.6668 33.9998 28.6668C32.9734 28.6668 32.1018 29.3296 31.7896 30.2505Z" fill="white"/>
</svg>
