<svg width="38" height="38" viewBox="0 0 38 38" fill="none" xmlns="http://www.w3.org/2000/svg">
<g filter="url(#filter0_d_2193_14258)">
<path d="M7 17C7 8.72 10.72 5 19 5C27.28 5 31 8.72 31 17C31 25.28 27.28 29 19 29C10.72 29 7 25.28 7 17Z" fill="white"/>
<path d="M19 4.5C14.7964 4.5 11.6397 5.44315 9.54145 7.54145C7.44315 9.63975 6.5 12.7964 6.5 17C6.5 21.2036 7.44315 24.3603 9.54145 26.4586C11.6397 28.5569 14.7964 29.5 19 29.5C23.2036 29.5 26.3603 28.5569 28.4586 26.4586C30.5569 24.3603 31.5 21.2036 31.5 17C31.5 12.7964 30.5569 9.63975 28.4586 7.54145C26.3603 5.44315 23.2036 4.5 19 4.5Z" stroke="white"/>
</g>
<path d="M18.6665 12H14.3332L13.6665 18.3333L15.9998 19.3333V21.3333L14.3332 21.8368V22.3333H18.6665V21.8368L16.9998 21.3333V19.3333L19.3332 18.3333L18.6665 12Z" fill="#232529"/>
<path d="M18.3335 14.3335L18.6668 18.0002" stroke="white" stroke-width="0.5"/>
<path d="M20.3335 16.6667V12H21.3335V15.3333H22.0002V12H23.0002V15.3333H23.6668V12H24.6668V16.6667L23.0002 18L23.3335 22.3333H21.6668L22.0002 18L20.3335 16.6667Z" fill="#232529"/>
<defs>
<filter id="filter0_d_2193_14258" x="0" y="0" width="38" height="38" filterUnits="userSpaceOnUse" color-interpolation-filters="sRGB">
<feFlood flood-opacity="0" result="BackgroundImageFix"/>
<feColorMatrix in="SourceAlpha" type="matrix" values="0 0 0 0 0 0 0 0 0 0 0 0 0 0 0 0 0 0 127 0" result="hardAlpha"/>
<feOffset dy="2"/>
<feGaussianBlur stdDeviation="3"/>
<feComposite in2="hardAlpha" operator="out"/>
<feColorMatrix type="matrix" values="0 0 0 0 0.4375 0 0 0 0 0.4375 0 0 0 0 0.4375 0 0 0 0.25 0"/>
<feBlend mode="normal" in2="BackgroundImageFix" result="effect1_dropShadow_2193_14258"/>
<feBlend mode="normal" in="SourceGraphic" in2="effect1_dropShadow_2193_14258" result="shape"/>
</filter>
</defs>
</svg>
