<svg width="26" height="26" viewBox="0 0 26 26" fill="none" xmlns="http://www.w3.org/2000/svg">
<path d="M13 0.5C8.79637 0.5 5.63975 1.44315 3.54145 3.54145C1.44315 5.63975 0.5 8.79637 0.5 13C0.5 17.2036 1.44315 20.3603 3.54145 22.4586C5.63975 24.5569 8.79637 25.5 13 25.5C17.2036 25.5 20.3603 24.5569 22.4586 22.4586C24.5569 20.3603 25.5 17.2036 25.5 13C25.5 8.79637 24.5569 5.63975 22.4586 3.54145C20.3603 1.44315 17.2036 0.5 13 0.5Z" fill="#232529" stroke="white"/>
<path fill-rule="evenodd" clip-rule="evenodd" d="M8.3335 17.3335V18.3335H17.0002V17.3335H8.3335Z" fill="white"/>
<path fill-rule="evenodd" clip-rule="evenodd" d="M18.4998 11.8335H16.6664V10.8335H19.4998V14.6166L15.9237 16.0956L15.4092 15.2381L18.4998 14.0504V11.8335Z" fill="white"/>
<path fill-rule="evenodd" clip-rule="evenodd" d="M9.80936 18.3335L7.6665 8.3335H17.6665L15.5236 18.3335H9.80936ZM15.0295 10.7575L14.3628 13.4242L15.3329 13.6667L15.9996 11L15.0295 10.7575Z" fill="white"/>
</svg>
