<svg width="24" height="24" viewBox="0 0 24 24" fill="none" xmlns="http://www.w3.org/2000/svg">
<path d="M5.80952 7.05556C5.80952 4.26823 8.05283 2 10.8095 2C13.077 2 15.0134 3.50275 15.6161 5.65625C16.1369 5.46441 16.6763 5.37037 17.2381 5.37037C19.8646 5.37037 22 7.52951 22 10.1852C22 12.8409 19.8646 15 17.2381 15H5.80952C3.70945 15 2 13.2716 2 11.1481C2 9.02474 3.70945 7.2963 5.80952 7.2963C5.80394 7.21542 5.80952 7.13455 5.80952 7.05556Z" fill="white"/>
<path fill-rule="evenodd" clip-rule="evenodd" d="M5.99989 16.9999L9.99989 12.9999L11.0605 14.0605L7.06055 18.0605L5.99989 16.9999Z" fill="white"/>
<path fill-rule="evenodd" clip-rule="evenodd" d="M16.4844 17.0164L17.4541 15.9861L18.5464 17.0142L17.5767 18.0444L16.4844 17.0164Z" fill="white"/>
<path fill-rule="evenodd" clip-rule="evenodd" d="M12.4999 15.9999L15.4999 12.9999L16.5605 14.0605L13.5605 17.0605L12.4999 15.9999Z" fill="white"/>
<path fill-rule="evenodd" clip-rule="evenodd" d="M2.96961 19.9696L4.96961 17.9696L6.03027 19.0303L4.03027 21.0303L2.96961 19.9696Z" fill="white"/>
<path fill-rule="evenodd" clip-rule="evenodd" d="M13.4696 19.9696L15.4696 17.9696L16.5303 19.0303L14.5303 21.0303L13.4696 19.9696Z" fill="white"/>
<path fill-rule="evenodd" clip-rule="evenodd" d="M9.46961 18.9696L11.4696 16.9696L12.5303 18.0303L10.5303 20.0303L9.46961 18.9696Z" fill="white"/>
</svg>
