<svg width="24" height="24" viewBox="0 0 24 24" fill="none" xmlns="http://www.w3.org/2000/svg">
<path fill-rule="evenodd" clip-rule="evenodd" d="M6.75 11V5H8.25V11H6.75Z" fill="white"/>
<path fill-rule="evenodd" clip-rule="evenodd" d="M9.82115 10.1496L4.625 7.14962L5.375 5.85059L10.5712 8.85059L9.82115 10.1496Z" fill="white"/>
<path fill-rule="evenodd" clip-rule="evenodd" d="M5.37514 10.1496L10.5713 7.14962L9.82129 5.85059L4.62514 8.85059L5.37514 10.1496Z" fill="white"/>
<path fill-rule="evenodd" clip-rule="evenodd" d="M16.75 10V2H18.25V10H16.75Z" fill="white"/>
<path fill-rule="evenodd" clip-rule="evenodd" d="M20.5532 8.64962L13.625 4.64962L14.375 3.35059L21.3032 7.35059L20.5532 8.64962Z" fill="white"/>
<path fill-rule="evenodd" clip-rule="evenodd" d="M14.3755 8.64962L21.3037 4.64962L20.5537 3.35059L13.6255 7.35059L14.3755 8.64962Z" fill="white"/>
<path fill-rule="evenodd" clip-rule="evenodd" d="M6.99989 18.5304L2.99989 14.5304L4.06055 13.4697L8.06055 17.4697L6.99989 18.5304Z" fill="white"/>
<path fill-rule="evenodd" clip-rule="evenodd" d="M13.9999 21.5304L9.99989 17.5304L11.0605 16.4697L15.0605 20.4697L13.9999 21.5304Z" fill="white"/>
<path fill-rule="evenodd" clip-rule="evenodd" d="M21 15.75L17 15.75L17 14.25L21 14.25L21 15.75Z" fill="white"/>
<path fill-rule="evenodd" clip-rule="evenodd" d="M4.03039 18.5304L8.03039 14.5304L6.96973 13.4697L2.96973 17.4697L4.03039 18.5304Z" fill="white"/>
<path fill-rule="evenodd" clip-rule="evenodd" d="M11.0304 21.5304L15.0304 17.5304L13.9697 16.4697L9.96973 20.4697L11.0304 21.5304Z" fill="white"/>
<path fill-rule="evenodd" clip-rule="evenodd" d="M18.25 17L18.25 13L19.75 13L19.75 17L18.25 17Z" fill="white"/>
</svg>
