<svg width="27" height="26" viewBox="0 0 27 26" fill="none" xmlns="http://www.w3.org/2000/svg">
<path d="M13.5 19.9062C17.297 19.9062 20.375 16.8142 20.375 13C20.375 9.18578 17.297 6.09375 13.5 6.09375C9.70304 6.09375 6.625 9.18578 6.625 13C6.625 16.8142 9.70304 19.9062 13.5 19.9062Z" fill="current"/>
<path d="M13.5 4.46875C13.7145 4.46875 13.9202 4.38314 14.0719 4.23077C14.2236 4.0784 14.3088 3.87174 14.3088 3.65625V1.625C14.3088 1.40951 14.2236 1.20285 14.0719 1.05048C13.9202 0.898102 13.7145 0.8125 13.5 0.8125C13.2855 0.8125 13.0797 0.898102 12.9281 1.05048C12.7764 1.20285 12.6912 1.40951 12.6912 1.625V3.65625C12.6912 3.87174 12.7764 4.0784 12.9281 4.23077C13.0797 4.38314 13.2855 4.46875 13.5 4.46875Z" fill="current"/>
<path d="M6.3509 6.96746C6.42594 7.0432 6.51511 7.10333 6.61332 7.1444C6.71153 7.18547 6.81683 7.20667 6.92321 7.2068C7.02959 7.20693 7.13494 7.18598 7.23325 7.14514C7.33155 7.10431 7.42087 7.04439 7.49609 6.96883C7.57131 6.89327 7.63095 6.80354 7.6716 6.70479C7.71225 6.60604 7.73311 6.50021 7.73298 6.39335C7.73285 6.28649 7.71174 6.1807 7.67086 6.08205C7.62997 5.9834 7.57012 5.89382 7.49472 5.81844L6.06492 4.38213C5.98983 4.30661 5.90066 4.24669 5.80251 4.20579C5.70436 4.1649 5.59916 4.14383 5.4929 4.1438C5.38664 4.14377 5.28142 4.16476 5.18325 4.2056C5.08507 4.24643 4.99587 4.30629 4.92073 4.38177C4.8456 4.45725 4.786 4.54686 4.74536 4.64548C4.70471 4.7441 4.6838 4.8498 4.68384 4.95654C4.68387 5.06328 4.70484 5.16896 4.74555 5.26756C4.78626 5.36616 4.84591 5.45573 4.92109 5.53116L6.3509 6.96746Z" fill="current"/>
<path d="M5.00738 13C5.00738 12.7845 4.92216 12.5779 4.77048 12.4255C4.6188 12.2731 4.41307 12.1875 4.19856 12.1875H2.1765C1.96199 12.1875 1.75626 12.2731 1.60457 12.4255C1.45289 12.5778 1.36768 12.7845 1.36768 13C1.36768 13.2155 1.45289 13.4222 1.60457 13.5745C1.75626 13.7269 1.96199 13.8125 2.1765 13.8125H4.19856C4.41307 13.8125 4.6188 13.7269 4.77048 13.5745C4.92216 13.4221 5.00738 13.2155 5.00738 13Z" fill="current"/>
<path d="M6.3509 19.0326L4.92109 20.4689C4.84591 20.5443 4.78626 20.6339 4.74555 20.7325C4.70484 20.8311 4.68387 20.9367 4.68384 21.0435C4.6838 21.1502 4.70471 21.2559 4.74536 21.3545C4.786 21.4532 4.8456 21.5428 4.92073 21.6182C4.99587 21.6937 5.08507 21.7536 5.18325 21.7944C5.28142 21.8353 5.38664 21.8562 5.4929 21.8562C5.59916 21.8562 5.70436 21.8351 5.80251 21.7942C5.90066 21.7533 5.98983 21.6934 6.06492 21.6179L7.49472 20.1816C7.57012 20.1062 7.62997 20.0166 7.67086 19.918C7.71174 19.8193 7.73285 19.7135 7.73298 19.6067C7.73311 19.4998 7.71225 19.394 7.6716 19.2952C7.63095 19.1965 7.57131 19.1067 7.49609 19.0312C7.42087 18.9556 7.33155 18.8957 7.23325 18.8549C7.13494 18.814 7.02959 18.7931 6.92321 18.7932C6.81683 18.7933 6.71153 18.8145 6.61332 18.8556C6.51511 18.8967 6.42594 18.9568 6.3509 19.0326Z" fill="current"/>
<path d="M13.5 21.5312C13.2855 21.5313 13.0797 21.6169 12.9281 21.7692C12.7764 21.9216 12.6912 22.1283 12.6912 22.3438V24.375C12.6912 24.5905 12.7764 24.7972 12.9281 24.9495C13.0797 25.1019 13.2855 25.1875 13.5 25.1875C13.7145 25.1875 13.9202 25.1019 14.0719 24.9495C14.2236 24.7972 14.3088 24.5905 14.3088 24.375V22.3438C14.3088 22.1283 14.2236 21.9216 14.0719 21.7692C13.9202 21.6169 13.7145 21.5313 13.5 21.5312Z" fill="current"/>
<path d="M20.6492 19.0326C20.5741 18.9568 20.485 18.8967 20.3868 18.8556C20.2885 18.8145 20.1832 18.7933 20.0769 18.7932C19.9705 18.7931 19.8651 18.814 19.7668 18.8549C19.6685 18.8957 19.5792 18.9556 19.504 19.0312C19.4288 19.1067 19.3691 19.1965 19.3285 19.2952C19.2878 19.394 19.267 19.4998 19.2671 19.6067C19.2672 19.7135 19.2883 19.8193 19.3292 19.918C19.3701 20.0166 19.43 20.1062 19.5054 20.1816L20.9352 21.6179C21.0102 21.6934 21.0994 21.7533 21.1976 21.7942C21.2957 21.8351 21.4009 21.8562 21.5072 21.8562C21.6134 21.8562 21.7187 21.8353 21.8168 21.7944C21.915 21.7536 22.0042 21.6937 22.0793 21.6182C22.1545 21.5428 22.2141 21.4532 22.2547 21.3545C22.2954 21.2559 22.3163 21.1502 22.3162 21.0435C22.3162 20.9367 22.2952 20.8311 22.2545 20.7325C22.2138 20.6339 22.1542 20.5443 22.079 20.4689L20.6492 19.0326Z" fill="current"/>
<path d="M24.8236 12.1875H22.8015C22.587 12.1875 22.3813 12.2731 22.2296 12.4255C22.0779 12.5778 21.9927 12.7845 21.9927 13C21.9927 13.2155 22.0779 13.4222 22.2296 13.5745C22.3813 13.7269 22.587 13.8125 22.8015 13.8125H24.8236C25.0381 13.8125 25.2438 13.7269 25.3955 13.5745C25.5472 13.4222 25.6324 13.2155 25.6324 13C25.6324 12.7845 25.5472 12.5778 25.3955 12.4255C25.2438 12.2731 25.0381 12.1875 24.8236 12.1875Z" fill="current"/>
<path d="M20.0771 7.20545C20.1834 7.20558 20.2886 7.18463 20.3867 7.14379C20.4849 7.10295 20.574 7.04302 20.6491 6.96746L22.0789 5.53116C22.154 5.45573 22.2137 5.36616 22.2544 5.26756C22.2951 5.16896 22.3161 5.06328 22.3161 4.95654C22.3161 4.8498 22.2952 4.7441 22.2546 4.64548C22.214 4.54686 22.1544 4.45725 22.0792 4.38177C22.0041 4.30629 21.9149 4.24643 21.8167 4.2056C21.7185 4.16476 21.6133 4.14377 21.5071 4.1438C21.4008 4.14383 21.2956 4.1649 21.1974 4.20579C21.0993 4.24669 21.0101 4.30661 20.935 4.38213L19.5052 5.81844C19.3921 5.93206 19.3151 6.07683 19.2839 6.23444C19.2526 6.39206 19.2687 6.55542 19.3299 6.70389C19.3911 6.85236 19.4948 6.97925 19.6278 7.06853C19.7608 7.15781 19.9172 7.20546 20.0771 7.20545H20.0771Z" fill="current"/>
</svg>
